<?xml version="1.0" encoding="UTF-8"?>
<svg width="24px" height="24px" viewBox="0 0 24 24" version="1.1" xmlns="http://www.w3.org/2000/svg" xmlns:xlink="http://www.w3.org/1999/xlink">
    <!-- Generator: Sketch 49.1 (51147) - http://www.bohemiancoding.com/sketch -->
    <title>icon_zhiwei</title>
    <desc>Created with Sketch.</desc>
    <defs></defs>
    <g id="icon_zhiwei" stroke="none" stroke-width="1" fill="none" fill-rule="evenodd">
        <g id="定位-copy">
            <rect id="Rectangle-6" x="0" y="0" width="24" height="24"></rect>
            <path d="M8.77485177,1 C8.66736968,1 8.56059048,1.01732788 8.45862401,1.0513167 C7.93468069,1.22596447 7.6515207,1.79228445 7.82616848,2.31622777 L8.7993808,5.23586474 C8.94665923,5.67770003 8.9890443,6.1477577 8.92317939,6.60881211 L7.16820309,18.8936462 C7.11374184,19.274875 7.28303047,19.6535032 7.60345239,19.8671178 L11.4452998,22.4283494 C11.7811992,22.6522824 12.2188008,22.6522824 12.5547002,22.4283494 L16.3965476,19.8671178 C16.7169695,19.6535032 16.8862582,19.274875 16.8317969,18.8936462 L15.0768206,6.60881211 C15.0109557,6.1477577 15.0533408,5.67770003 15.2006192,5.23586474 L16.1738315,2.31622777 C16.2078203,2.2142613 16.2251482,2.1074821 16.2251482,2 C16.2251482,1.44771525 15.777433,1 15.2251482,1 L8.77485177,1 Z" id="Path-4" stroke="#FFFFFF" stroke-width="2"></path>
            <path d="M19.1999969,6.46739075 L20,18.7522248" id="Path" stroke="#FFFFFF" stroke-width="2" stroke-linecap="round"></path>
            <path d="M3,18.7522248 L4.7549763,6.46739075" id="Path" stroke="#FFFFFF" stroke-width="2" stroke-linecap="round"></path>
            <path d="M10,6 L14,6" id="Path-5" stroke="#FFFFFF" stroke-width="2" stroke-linecap="round" stroke-linejoin="round"></path>
        </g>
    </g>
</svg>