<?xml version="1.0" encoding="UTF-8"?>
<svg width="24px" height="24px" viewBox="0 0 24 24" version="1.1" xmlns="http://www.w3.org/2000/svg" xmlns:xlink="http://www.w3.org/1999/xlink">
    <!-- Generator: Sketch 49.1 (51147) - http://www.bohemiancoding.com/sketch -->
    <title>icon_dingwei_bai</title>
    <desc>Created with Sketch.</desc>
    <defs></defs>
    <g id="icon_dingwei_bai" stroke="none" stroke-width="1" fill="none" fill-rule="evenodd">
        <g id="定位-copy">
            <rect id="Rectangle-6" x="0" y="0" width="24" height="24"></rect>
            <path d="M12.1040583,22.9302727 C12.4542996,22.6863513 12.94307,22.3255734 13.5246235,21.8636425 C14.612409,20.999609 15.6915322,20.0405775 16.6922752,19.0105365 C19.443879,16.1783761 21.1029338,13.3350305 21.1827293,10.7273 C21.2669512,7.96813568 20.3876886,5.57674603 18.6413388,3.77611845 C16.9373278,2.01876334 14.5517686,1.00899391 12.1040568,1.00899391 C9.65634502,1.00899391 7.27078577,2.01876333 5.56669493,3.7762008 C3.82042623,5.5767232 2.94116437,7.96813142 3.02540599,10.7272248 C3.10520378,13.3350198 4.76425893,16.1783639 7.51586287,19.010528 C8.51660609,20.0405705 9.59572963,20.9996042 10.6835151,21.8636399 C11.2654282,22.3258577 11.7544515,22.686803 12.1040583,22.9302727 Z" id="Shape" stroke="#FFFFFF" stroke-width="2" fill-rule="nonzero"></path>
            <path d="M12.117128,12.7268292 C13.6432769,12.7268292 14.8866458,11.4836186 14.8866282,9.95766469 C14.8866282,8.43203404 13.6432138,7.18885994 12.117128,7.18885994 C10.5912315,7.18885994 9.3483232,8.43184464 9.3483232,9.95766469 C9.3483232,11.4838128 10.5911758,12.7268292 12.117128,12.7268292 Z" id="Shape" stroke="#FFFFFF" stroke-width="2" fill-rule="nonzero"></path>
        </g>
    </g>
</svg>