<?xml version="1.0" encoding="UTF-8"?>
<svg width="57px" height="56px" viewBox="0 0 57 56" version="1.1" xmlns="http://www.w3.org/2000/svg" xmlns:xlink="http://www.w3.org/1999/xlink">
    <!-- Generator: Sketch 49.1 (51147) - http://www.bohemiancoding.com/sketch -->
    <title>Group 4</title>
    <desc>Created with Sketch.</desc>
    <defs></defs>
    <g id="小程序v1.0" stroke="none" stroke-width="1" fill="none" fill-rule="evenodd">
        <g id="6.1-登录1" transform="translate(-160.000000, -151.000000)">
            <g id="Group-4" transform="translate(153.000000, 144.000000)">
                <g id="1" transform="translate(7.118644, 7.118644)">
                    <path d="M1.73051753,46.2127676 C-0.296004048,42.7027293 -0.43157398,37.7863385 0.747866988,32.4611597 C1.22586427,30.3030009 1.91984864,28.0776997 2.79148245,25.8516592 C3.0696134,25.1413486 3.45844253,24.2498947 3.95796986,23.1772975 L3.95799637,23.1773098 C4.7642163,21.4461748 6.82114891,20.6963829 8.55228396,21.5026028 C8.64398373,21.545309 8.73376527,21.5920187 8.82136951,21.642597 C10.6064053,22.673187 11.3132925,24.8933548 10.4527205,26.7662896 C10.2620159,27.181236 10.1023525,27.5431684 9.97369241,27.8520693 C9.30054466,29.4682349 8.75182298,31.0394405 8.33382328,32.5279837 C7.11647657,36.8630903 7.00785846,40.4970895 8.16348442,42.4986924 C9.32636643,44.5128631 12.5608388,46.2448541 16.9658621,47.3574277 C18.4382983,47.7293198 20.0415223,48.0320034 21.7418821,48.2528833 C22.0764549,48.2963449 22.4733592,48.3394628 22.932595,48.382237 C24.9849762,48.5734032 26.5543367,50.29573 26.5543367,52.356995 C26.5543367,54.2670967 25.0058934,55.81554 23.0957917,55.81554 C22.9947607,55.81554 22.8937782,55.811113 22.7931347,55.8022718 C21.6395682,55.7009436 20.6923007,55.594556 19.9513313,55.4831182 C17.6692627,55.1399072 15.4699159,54.6537993 13.4221746,54.0247947 C8.09414386,52.3881836 3.79246973,49.7841736 1.73051753,46.2127676 Z M33.8901851,48.3822825 C34.3491226,48.3395386 34.7457885,48.2964512 35.0801827,48.2530203 C36.7803169,48.0322079 38.38335,47.729614 39.8556453,47.3578279 C44.2613787,46.245286 47.4964077,44.5131552 48.6594097,42.4987765 C49.8180133,40.4920163 49.705837,36.844423 48.4796051,32.4945112 C48.0588238,31.0018399 47.5068606,29.4264694 46.8300479,27.8063217 C46.69977,27.4944638 46.5378977,27.1287147 46.3444308,26.7090744 L46.344397,26.70909 C45.4816479,24.8377402 46.1870658,22.6172667 47.9716427,21.5869407 C49.6271851,20.6311129 51.744119,21.1983436 52.6999468,22.853886 C52.7499467,22.9404883 52.7961702,23.0292168 52.8384871,23.1198216 C53.3414553,24.1967337 53.732907,25.0916172 54.0128399,25.8044733 C54.8885033,28.0343724 55.5861745,30.2640007 56.0673163,32.4266101 C57.255036,37.7651065 57.1232886,42.6952089 55.0923766,46.2128516 C53.0301962,49.7846529 48.7277959,52.3888322 43.3989456,54.0253924 C41.3514,54.6542206 39.1523107,55.1401909 36.8705329,55.4833033 C36.129772,55.594692 35.1828066,55.701033 34.0296368,55.8023262 C32.1268365,55.969473 30.4488179,54.5624418 30.2816779,52.659641 C30.2728381,52.5590052 30.2684119,52.4580305 30.2684119,52.3570072 C30.2684119,50.2957305 31.8377872,48.5733968 33.8901815,48.3822437 L33.8901851,48.3822825 Z M9.56933371,13.434805 C10.0319133,12.7728204 10.432921,12.2220072 10.7723569,11.7823655 C12.0670184,10.1055033 13.4336581,8.5420263 14.8460929,7.13728503 C19.188615,2.81841678 23.9640165,-1.40305137e-12 28.4113743,0 C32.8500637,1.43622195e-12 37.615531,2.80744699 41.9512871,7.11206361 C43.3616851,8.51233205 44.7266125,10.0710258 46.0200298,11.7430432 C46.3578187,12.1797073 46.7567269,12.7264296 47.2167544,13.3832103 C48.3147575,14.9508464 47.9340567,17.111776 46.3664267,18.2097878 C46.2837069,18.267727 46.198494,18.3220225 46.1110318,18.3725188 C44.3305155,19.4005012 42.0603719,18.9073276 40.8668587,17.2332569 C40.7169524,17.0230576 40.5799222,16.8351218 40.4557372,16.6694715 C39.5044003,15.4004837 38.5322955,14.2349671 37.5608124,13.1905418 C34.2114073,9.58965197 30.8693934,7.42815033 28.4113743,7.42815033 C25.947563,7.42815033 22.5955971,9.59984488 19.2382861,13.2160075 C18.2646309,14.2647324 17.2905261,15.4349458 16.337505,16.7089094 C16.2113421,16.8775593 16.071959,17.069211 15.9193558,17.2838645 L15.9193689,17.2838738 C14.7283393,18.9591894 12.458545,19.4538745 10.6783978,18.4261053 C9.01918486,17.4681575 8.45069713,15.3465296 9.4086449,13.6873166 C9.45855215,13.6008748 9.51216692,13.5166272 9.56933956,13.4348091 Z" id="Combined-Shape" fill="#2692F0"></path>
                    <path d="M28.4745763,21.0464259 C22.9101789,21.0464259 15.1333441,34.5162234 17.9155428,39.3351328 C20.6977414,44.1540422 36.2514111,44.1540422 39.0336098,39.3351328 C41.8158084,34.5162234 34.0389736,21.0464259 28.4745763,21.0464259 Z" id="Fill-2" fill="#FFA100" transform="translate(28.474576, 31.997870) scale(1, -1) translate(-28.474576, -31.997870) "></path>
                </g>
            </g>
        </g>
    </g>
</svg>