<?xml version="1.0" encoding="UTF-8"?>
<svg width="15px" height="15px" viewBox="0 0 15 15" version="1.1" xmlns="http://www.w3.org/2000/svg" xmlns:xlink="http://www.w3.org/1999/xlink">
    <!-- Generator: Sketch 49.1 (51147) - http://www.bohemiancoding.com/sketch -->
    <title>用户手机号</title>
    <desc>Created with Sketch.</desc>
    <defs></defs>
    <g id="小程序v1.0" stroke="none" stroke-width="1" fill="none" fill-rule="evenodd">
        <g id="6.1-登录1" transform="translate(-31.000000, -295.000000)">
            <g id="Group" transform="translate(30.000000, 294.000000)">
                <g id="Group-7">
                    <g id="用户手机号">
                        <rect id="Rectangle-3" opacity="0.200000003" x="0" y="0" width="17" height="17"></rect>
                        <path d="M16,15.4827586 L15.9458948,15.4827586 C15.8344702,15.7827586 15.5446591,16 15.1959216,16 C14.847184,16 14.557373,15.7827586 14.4464841,15.4827586 L14.3923788,15.4827586 C14.3923788,12.0544828 12.0503196,9.79310345 8.49973215,9.79310345 C4.94914467,9.79310345 2.60708546,12.0544828 2.60708546,15.4827586 L2.55298025,15.4827586 C2.44155566,15.7827586 2.15228028,16 1.80354273,16 C1.45480519,16 1.1655298,15.7827586 1.05410521,15.4827586 L1,15.4827586 C1,15.412931 1.00910682,15.3451724 1.0112496,15.2758621 C1.00964251,15.2577586 1,15.2427586 1,15.2241379 C1,15.1936207 1.01446377,15.1677586 1.01821364,15.1377586 C1.16767258,12.0787931 3.27991857,9.52051724 6.16624406,8.60603448 C4.99200029,7.86793103 4.21417092,6.59189655 4.21417092,5.13793103 C4.21417092,2.85275862 6.13249527,1 8.49973215,1 C10.866969,1 12.7852934,2.85275862 12.7852934,5.13793103 C12.7852934,6.59189655 12.007464,7.86793103 10.8332202,8.60603448 C13.7195457,9.52051724 15.8323274,12.0787931 15.9817864,15.1382759 C15.9855362,15.1677586 16,15.1936207 16,15.2241379 C16,15.2427586 15.9903575,15.2577586 15.9887504,15.2758621 C15.9908932,15.3451724 16,15.412931 16,15.4827586 L16,15.4827586 Z M11.1776722,5.13793103 C11.1776722,3.70982759 9.97932217,2.55172414 8.49973215,2.55172414 C7.02014214,2.55172414 5.82125638,3.70982759 5.82125638,5.13793103 C5.82125638,6.56603448 7.02014214,7.72413793 8.49973215,7.72413793 C9.97932217,7.72413793 11.1776722,6.56603448 11.1776722,5.13793103 L11.1776722,5.13793103 Z" id="Shape" fill="#8A9299"></path>
                    </g>
                </g>
            </g>
        </g>
    </g>
</svg>