<?xml version="1.0" encoding="UTF-8"?>
<svg width="17px" height="11px" viewBox="0 0 17 11" version="1.1" xmlns="http://www.w3.org/2000/svg" xmlns:xlink="http://www.w3.org/1999/xlink">
    <!-- Generator: Sketch 49.1 (51147) - http://www.bohemiancoding.com/sketch -->
    <title>短信</title>
    <desc>Created with Sketch.</desc>
    <defs></defs>
    <g id="小程序v1.0" stroke="none" stroke-width="1" fill="none" fill-rule="evenodd">
        <g id="6.1-登录1" transform="translate(-30.000000, -361.000000)">
            <g id="Group" transform="translate(30.000000, 294.000000)">
                <g id="Group-6" transform="translate(0.000000, 58.000000)">
                    <g id="短信" transform="translate(0.000000, 6.000000)">
                        <rect id="Rectangle-3" opacity="0.200000003" x="0" y="0" width="17" height="17"></rect>
                        <path d="M15.0005,14 L2.0005,14 C1.172,14 0.5,13.3285 0.5,12.5 L0.5,4.5 C0.5,3.672 1.172,3 2.0005,3 L15.0005,3 C15.829,3 16.5005,3.672 16.5005,4.5 L16.5005,12.5 C16.5005,13.3285 15.829,14 15.0005,14 L15.0005,14 Z M2.0005,11.5 C2.0005,12.052 2.448,12.5 3,12.5 L14.0005,12.5 C14.5525,12.5 15.0005,12.052 15.0005,11.5 L15.0005,5.5 C15.0005,5.361 14.972,5.2285 14.9205,5.108 L9.372,10.26 C9.134,10.4815 8.796,10.5 8.5005,10.5 C8.205,10.5 7.85,10.4815 7.612,10.26 L2.0765,5.12 C2.028,5.2375 2.0005,5.3655 2.0005,5.5 L2.0005,11.5 L2.0005,11.5 Z M13.246,4.5 L3.741,4.5 L8.5005,9 L13.246,4.5 L13.246,4.5 Z" id="Shape" fill="#8A9299"></path>
                    </g>
                </g>
            </g>
        </g>
    </g>
</svg>